<?xml version="1.0" encoding="utf-8"?>
<!-- Generator: Adobe Illustrator 19.0.0, SVG Export Plug-In . SVG Version: 6.00 Build 0)  -->
<svg version="1.1" id="Layer_1" xmlns="http://www.w3.org/2000/svg" xmlns:xlink="http://www.w3.org/1999/xlink" x="0px" y="0px"
	 viewBox="-171 183.7 156 34.3" style="enable-background:new -171 183.7 156 34.3;" xml:space="preserve">
<style type="text/css">
	.st0{fill:none;stroke:#FFCACA;stroke-width:0.25;stroke-linecap:round;stroke-linejoin:round;stroke-miterlimit:10;}
	.st1{fill:#231F20;}
	.st2{fill:#FFCACA;}
</style>
<g>
	<g>
		<line class="st0" x1="-100.5" y1="200.8" x2="-68.6" y2="200.7"/>
		<line class="st0" x1="-88.5" y1="200.8" x2="-56.6" y2="200.7"/>
		<line class="st0" x1="-128.9" y1="200.8" x2="-100.5" y2="200.7"/>
		<g>
			<line class="st0" x1="-110.3" y1="192.5" x2="-100.5" y2="200.8"/>
			<line class="st0" x1="-102.6" y1="188.2" x2="-100.5" y2="200.8"/>
			<line class="st0" x1="-94.1" y1="190.1" x2="-100.5" y2="200.8"/>
			<line class="st0" x1="-88.5" y1="196.5" x2="-100.5" y2="200.8"/>
			<line class="st0" x1="-88.5" y1="205.3" x2="-100.5" y2="200.8"/>
			<line class="st0" x1="-94.2" y1="211.9" x2="-100.5" y2="200.8"/>
			<line class="st0" x1="-102.9" y1="213.3" x2="-100.5" y2="200.8"/>
			<line class="st0" x1="-110.3" y1="209" x2="-100.5" y2="200.8"/>
			<line class="st0" x1="-113.4" y1="200.7" x2="-100.5" y2="200.8"/>
			<g>
				<path class="st1" d="M-100.5,198.7c-1.2,0-2.1,1-2.1,2.1c0,1.2,1,2.1,2.1,2.1c1.2,0,2.1-1,2.1-2.1S-99.4,198.7-100.5,198.7z"/>
				<path class="st1" d="M-55.4,199.5c-0.7,0-1.3,0.6-1.3,1.3s0.6,1.3,1.3,1.3c0.7,0,1.3-0.6,1.3-1.3
					C-54.1,200.1-54.6,199.5-55.4,199.5z"/>
				<g>
					<path class="st1" d="M-100.6,214.1c-1.6,0-3.1-0.3-4.5-0.8l0.3-0.7c1.4,0.5,2.8,0.8,4.3,0.8L-100.6,214.1z M-96,213.3l-0.3-0.7
						c1.4-0.5,2.6-1.2,3.8-2.2l0.5,0.6C-93.2,212-94.6,212.8-96,213.3z M-109.1,210.9c-1.2-1-2.2-2.2-3-3.5l0.7-0.4
						c0.7,1.3,1.7,2.4,2.8,3.3L-109.1,210.9z M-89,207.5l-0.7-0.4c0.8-1.3,1.3-2.6,1.5-4.1l0.7,0.1C-87.7,204.7-88.2,206.2-89,207.5
						z M-113.7,203.1c-0.1-0.7-0.2-1.5-0.2-2.3s0.1-1.6,0.2-2.3l0.7,0.1c-0.1,0.7-0.2,1.5-0.2,2.2s0.1,1.4,0.2,2.2L-113.7,203.1z
						 M-88.1,198.7c-0.3-1.4-0.8-2.8-1.5-4.1l0.7-0.4c0.8,1.4,1.3,2.8,1.6,4.3L-88.1,198.7z M-111.4,194.5l-0.7-0.4
						c0.8-1.3,1.8-2.5,3-3.5l0.5,0.6C-109.7,192.1-110.7,193.2-111.4,194.5z M-92.5,191.3c-1.1-1-2.4-1.7-3.7-2.2l0.3-0.7
						c1.4,0.6,2.8,1.4,4,2.4L-92.5,191.3z M-104.8,189l-0.3-0.7c1.5-0.5,3-0.8,4.6-0.8v0.8h-0.1C-102,188.2-103.4,188.4-104.8,189z"
						/>
				</g>
			</g>
		</g>
		<rect x="-69.5" y="194.5" class="st2" width="3.8" height="13"/>
		<polygon class="st2" points="-131.9,199 -128.6,200.8 -131.9,202.7 		"/>
	</g>
</g>
</svg>
