<?xml version="1.0" encoding="utf-8"?>
<!-- Generator: Adobe Illustrator 19.0.0, SVG Export Plug-In . SVG Version: 6.00 Build 0)  -->
<svg version="1.1" id="Layer_1" xmlns="http://www.w3.org/2000/svg" xmlns:xlink="http://www.w3.org/1999/xlink" x="0px" y="0px"
	 viewBox="-33 7 432 388" style="enable-background:new -33 7 432 388;" xml:space="preserve">
<style type="text/css">
	.st0{fill:none;stroke:#000000;stroke-miterlimit:10;}
	.st1{fill:#00AEEF;}
	.st2{fill:none;stroke:#000000;stroke-linecap:round;stroke-linejoin:round;stroke-miterlimit:10;}
	.st3{fill:#FFFFFF;}
	.st4{fill:#FFFEFE;}
	.st5{fill:#FAFAFA;}
	.st6{fill:#0A0B0B;}
	.st7{fill:#B5B4B4;}
	.st8{fill:#F2F1F1;}
	.st9{fill:#B5B5B5;}
	.st10{fill:#E3E1E1;}
	.st11{fill:#F5F4F4;}
	.st12{fill:#E2E1E0;}
	.st13{fill:#908F8F;}
	.st14{fill:#B9B9B9;}
	.st15{fill:#D0D0CF;}
	.st16{fill:#DFDEDE;}
	.st17{fill:#353636;}
	.st18{fill:#C5C4C4;}
	.st19{fill:#525252;}
	.st20{fill:#969595;}
	.st21{fill:#646463;}
	.st22{fill:#767676;}
	.st23{fill:#A1A0A0;}
	.st24{fill:#3C3D3D;}
	.st25{fill:#A0A0A0;}
	.st26{fill:#C2C1C1;}
	.st27{fill:#CDCCCC;}
	.st28{fill:#C5C3C3;}
	.st29{fill:#8B8A8A;}
	.st30{fill:#565655;}
	.st31{fill:#5F5F5F;}
	.st32{fill:#C6C5C5;}
	.st33{fill:#9B9A9B;}
	.st34{fill:#545555;}
	.st35{fill:#B2B1B1;}
	.st36{fill:#9B9A9A;}
	.st37{fill:#D8D7D7;}
	.st38{fill:#DBDAD9;}
	.st39{fill:#AAA9A9;}
	.st40{fill:#D9D8D8;}
	.st41{fill:#D2D1D1;}
	.st42{fill:#A9A8A8;}
	.st43{fill:#AFAEAF;}
	.st44{fill:#818080;}
	.st45{fill:#959494;}
	.st46{fill:#BBBBBB;}
	.st47{fill:#D0CFCF;}
	.st48{fill:#B3B2B2;}
	.st49{fill:#818181;}
	.st50{fill:#030303;}
	.st51{fill:#161717;}
	.st52{fill:#080808;}
	.st53{fill:#0B0C0C;}
	.st54{fill:#4F4F4F;}
	.st55{fill:#383939;}
	.st56{fill:#3A3B3B;}
	.st57{fill:#60605F;}
	.st58{fill:#757474;}
	.st59{fill:#656565;}
	.st60{fill:#3D3E3E;}
	.st61{fill:#434443;}
	.st62{fill:#A5A5A5;}
	.st63{fill:#949494;}
	.st64{fill:#636363;}
	.st65{fill:#606060;}
	.st66{fill:#6B6B6A;}
	.st67{fill:#9C9B9C;}
	.st68{fill:#888888;}
	.st69{fill:#7F7F7F;}
	.st70{fill:#373838;}
	.st71{fill:#181919;}
</style>
<rect id="XMLID_1_" x="-811.3" y="36.4" class="st0" width="177" height="76.3"/>
<rect id="XMLID_2_" x="-684.9" y="61.6" class="st0" width="25.3" height="25.3"/>
<circle id="XMLID_3_" class="st0" cx="-722.8" cy="74.3" r="12.6"/>
<polygon id="XMLID_6_" class="st0" points="-786,86.9 -760.7,86.9 -773.4,61.6 "/>
<rect id="XMLID_39_" x="-565.6" y="36.4" class="st0" width="177" height="76.3"/>
<rect id="XMLID_38_" x="-439.2" y="61.6" width="25.3" height="25.3"/>
<circle id="XMLID_37_" cx="-477.1" cy="74.3" r="12.6"/>
<polygon id="XMLID_36_" points="-540.3,86.9 -515,86.9 -527.7,61.6 "/>
<path id="XMLID_29_" class="st1" d="M-156.1,36.4h-141.4c-9.8,0-17.8,8-17.8,17.8v40.7c0,9.8,8,17.8,17.8,17.8h141.4
	c9.8,0,17.8-8,17.8-17.8V54.2C-138.3,44.3-146.3,36.4-156.1,36.4z M-290,86.9l12.6-25.3l12.6,25.3H-290z M-226.8,86.9
	c-7,0-12.6-5.7-12.6-12.6s5.7-12.6,12.6-12.6s12.6,5.7,12.6,12.6S-219.8,86.9-226.8,86.9z M-163.6,86.9h-25.3V61.6h25.3V86.9z"/>
<rect id="XMLID_9_" x="-655.5" y="188.7" class="st0" width="76.3" height="177"/>
<rect id="XMLID_8_" x="-629.8" y="315.1" class="st0" width="25.3" height="25.3"/>
<circle id="XMLID_7_" class="st0" cx="-617.1" cy="277.2" r="12.6"/>
<polygon id="XMLID_5_" class="st0" points="-629.8,239.3 -604.5,239.3 -617.1,214 "/>
<rect id="XMLID_562_" x="-805.7" y="188.7" class="st0" width="76.3" height="177"/>
<g id="XMLID_588_">
	
		<rect id="XMLID_561_" x="-780.6" y="289.3" transform="matrix(-0.7071 -0.7071 0.7071 -0.7071 -1524.5195 -27.4976)" class="st2" width="25.3" height="25.3"/>
	<circle id="XMLID_560_" class="st0" cx="-768" cy="271.4" r="12.6"/>
	<polygon id="XMLID_559_" class="st2" points="-755.4,233.5 -780.6,233.5 -768,258.8 	"/>
</g>
<rect id="XMLID_361_" x="-467.1" y="188.7" class="st2" width="75.9" height="75.9"/>
<circle id="XMLID_362_" class="st2" cx="-429.2" cy="226.6" r="37.9"/>
<polygon id="XMLID_389_" class="st2" points="-467.1,264.5 -391.2,264.5 -429.2,188.7 "/>
<rect id="XMLID_460_" x="-443.9" y="321.2" class="st2" width="29.5" height="29.5"/>
<circle id="XMLID_459_" class="st2" cx="-429.2" cy="327.8" r="37.9"/>
<polygon id="XMLID_458_" class="st2" points="-459.3,350.8 -399,350.8 -429.2,290.5 "/>
<rect id="XMLID_510_" x="-216.8" y="188.7" class="st2" width="75.9" height="75.9"/>
<circle id="XMLID_509_" class="st2" cx="-178.8" cy="226.6" r="37.9"/>
<polygon id="XMLID_508_" class="st2" points="-216.8,264.5 -140.9,264.5 -178.8,188.7 "/>
<rect id="XMLID_507_" x="-193.6" y="321.2" class="st2" width="29.5" height="29.5"/>
<circle id="XMLID_506_" class="st2" cx="-178.8" cy="327.8" r="37.9"/>
<polygon id="XMLID_505_" class="st2" points="-209,350.8 -148.7,350.8 -178.8,290.5 "/>
<g id="XMLID_501_">
	<circle id="XMLID_504_" class="st2" cx="-178.8" cy="336" r="14.8"/>
	<polygon id="XMLID_503_" class="st2" points="-167.1,326.9 -190.6,326.9 -178.8,350.3 	"/>
	<rect id="XMLID_502_" x="-184.4" y="327.1" class="st2" width="11.1" height="11.1"/>
</g>
<g id="XMLID_10_">
	<rect id="XMLID_24_" x="-33" y="7" width="432" height="388"/>
	<g id="XMLID_277_">
		<path id="XMLID_359_" class="st3" d="M121.4,264.2c-1,0.7-1.5,2-2.9,2.3c-3.6,0.7-4.4,0.2-5.1-3.4c-0.4-2.1-0.5-4.3-1.3-6.3
			c-1.2,1.5-0.6,3.4-1,5c-0.3,1.2-0.6,1.9-1.8,0.8c-2.4-2.2-4.8-4.5-6.3-7.5c-0.7-1.5-0.5-2.5,0.9-3.4c2.9-1.9,5.7-3.9,7.3-7.3
			c0.4-0.9,1.5-1.9,2.5-2.2c5.5-1.9,9.3-6.3,13.7-9.8c4.5-3.6,8.6-7.6,12.9-11.4c0.8-0.7,1.8-1.2,2.8-1.9c3.5-2.4,6.9-4.6,8.3-9.2
			c1.2-3.9,5.3-5.8,8.2-8.5c7.4-6.9,15.1-13.5,21.9-21c1.3-1.4,2.4-2.7,2.1-4.7c-0.1-0.9-0.6-1.8-0.8-2.7c-1-4.1,0.1-6.5,4.2-8.1
			c1.6-0.6,3.3-1,5-1.5c2.1-0.7,3.8-1.4,3.7-4.3c-0.1-2.9,1.1-5.4,4-6.8c4.5-2.1,8.3-4.8,10.5-9.5c0.8-1.7,2.6-2.7,4.4-3.5
			c3.5-1.4,5.7-4.2,7.8-7.1c1-1.3,2.7-1.5,3.8-2.9c-2.1-0.3-4.1,1.1-6-0.3c1.4-2.7,4.2-3.5,8.2-2c-0.7,0.4-1.4,0.8-2,1.2
			c0.1,0.5,0.4,0.6,0.7,0.6c5.6-0.8,10.9,1.3,16.2,2.2c2.8,0.5,4.6,0,6.9-1.2c1.4-0.8,3.7-0.2,5.6,0.1c2,0.4,4,0.6,6.1,0
			c0.2,1.3-1.1,1.8-1.2,2.8c0.1,2-1.7,2.9-2.6,4.3c-1.1,1.5-0.9,3.2-0.2,4.8c0.5,1.2,1.1,2.3,1.8,3.4c3.6,5.3,2.6,10.4-0.9,15.3
			c-1.4,1.5-2.1,3.4-3.6,4.9c-0.1,0.4-0.3,0.7-0.6,1c0.4-0.3,0.5-0.7,0.8-1.1c1.4-1.3,1.9-3.3,3.4-4.5c1.3,0.1,1.9,1,2.7,1.8
			c1.5,1.6,3.3,3,5,4.4c1.8,1.4,2.6,1.1,3.3-1c0.2-0.4,0.4-0.8,0.7-1.2c1.3-1.4,2.5-2.8,3.5-4.4c3-3.5,6.6-6.2,10.7-8.3
			c2.1-1.1,4.3-2,6.4-3.2c0.2-0.1,0.4-0.2,0.6-0.3c1.6-0.5,3.1-1.5,4.8-1.4c-0.4-1-1.1-2.2-2.1-3.3c-0.1-0.2-0.3-0.3-0.4-0.5
			c-0.6-1.1-1.4-1.8-2.4-2.6c-0.2-0.2-0.4-0.5-0.6-0.8c-0.9-1.7-2.5-2.9-3.8-4.2c-3.4-3.3-6.4-6.8-10.2-9.8
			c-0.7-0.5-1.3-1.2-1.6-2.1c0-0.2,0-0.5,0.1-0.7c1.2-1.8,1.7-3.9,2.5-5.8c1.6,0.4,2.3,1.9,3.3,2.9c9.3,9.3,18.6,18.7,27.9,28
			c1.3,1.4,2.6,2.8,3.8,4.3c0.8,1.1,1.4,2.4,0.1,3.6c-0.7,1.4-1.8,2.5-3.5,2.8c-4.3,0.5-7.7,3-11.4,4.9c-1,1.3-2.5,1.8-3.7,2.8
			c-7.6,4.9-15.6,9-23.6,13.3s-15.8,9.1-23.8,13.5c-5.9,3.3-12,6.4-17.9,9.8c-2.9,1.7-5.6,3.7-8,6c-0.1,0-0.2,0.1-0.3,0.1
			c-2.6,0.2-5,1.1-7.2,2.5c-1.1,1.4-2.4,2.7-4.3,2.9c-2.1,0.9-4.2,2-6.5,2.6c-1.2,0.3-1.6,0.9-1.9,1.9c0.2,0.4,0,0.5-0.4,0.4
			c-1.4-0.7-1-1.3-0.1-2.2s2.3-1.9-0.5-2.5c-1.4-0.3-2.3-2-3-3.4c-0.2-0.3-0.1-0.9-0.4-1.1c-2.6-2.1-1-3.3,0.7-5
			c3.8-3.7,8.5-6.1,12.8-9.1s8.3-6.2,11.7-10.1c2.1-2.4,4.5-4.5,7-6.5c4-3.2,6.6-7.5,9.6-11.5c2.2-2.9,4.6-5.5,7.4-7.8
			c1.9-1.6,3.2-3.5,3.7-5.9c0.4-1.9-0.4-2.5-2.3-2c-3,0.7-4.2,3.1-5.8,5.3c-3.4,4.7-7.3,9-11.3,13.2c-0.6,0.6-1.3,1.3-2.2,1.4
			c-5.4,0.4-8.9,3.3-10.9,8.2c-1.9,4.8-5.4,8.1-9.5,10.9c-1.3,0.9-2.5,2-3.4,3.3c-2.5,4.2-6.9,5.8-10.9,7.9c-2.7,1.4-5.3,3-7.9,4.7
			c-0.9,0.6-2.3,1.4-0.3,2.6c1,0.6,0,1-0.3,1.3c-1.5,1.3-3.1,2.5-4.6,3.7c-0.8,0.7-1.5,1.5-0.6,2.6c0.8,1,1.7,0.6,2.5,0
			c0.4-0.3,0.7-1.1,1.3-0.4c0.5,0.6-0.2,0.9-0.5,1.4s-0.6,1.1-0.9,1.7c-0.4,0.7,0,1.2,0.5,1.6c0.6,0.5,1.1,0.3,1.7-0.1
			c0.6-0.5,1-1.6,2.2-0.9c-0.3,0.6-0.7,1.2-1,1.8c-0.2,0.6,0,1.1,0.5,1.5s1,0,1.2-0.3c0.8-0.9,1.7-1.1,2.8-0.8
			c-0.3,1.3-1.2,2.1-2.4,2.8c-7.1,3.9-14.2,7.9-21.3,11.8c-2.3,2.5-5.7,3.5-8.4,5.4c-0.6,0.5-1.4,0.8-2,1.3
			c-8.5,5-17.2,9.6-25.8,14.4C126.9,260.1,124.2,262.3,121.4,264.2z"/>
		<path id="XMLID_358_" class="st3" d="M117.5,188.8c-4.3,4.1-9.2,7.1-14.3,10c-1.5,0.8-2.9,1.5-3.4,3.4c-0.2,0.7-0.9,1-1.5,1.5
			c-5,3.8-10,7.6-14.9,11.5c-0.1,0.1-0.1,0.3-0.2,0.4c-1.3-0.2-2.6,0.1-3.4,0c0.7,0,2.1,0,3.4,0c3.6-0.7,6.9-2.4,9.9-4.4
			c6.2-4.1,12.2-8.4,18.3-12.6c3.7-2.5,7.4-4.9,12.1-5c1.2,0,2.3-0.4,2.3-2.3c0-2.7,1.1-4.9,3.6-6.3c1.2-0.7,2.4-1.6,3.7-2.1
			c6.8-2.5,12.6-6.7,18.3-11c3.9-3,8.1-5.6,12.6-7.7c0.2-0.1,0.4-0.5,0.5-0.7c1-1.1,2.4-1.1,3.7-1.4c2-0.4,3.9-1.4,6-1.4
			c1-0.3,2-0.6,2.9-1c1.4-0.6,3.1-0.8,4,0.3c0.9,1,0.3,2.7-0.1,4.1c-1.5,4.3-4.5,7.7-6,12c-0.1,0.2-0.3,0.4-0.4,0.6
			c-1.2,5.9-5.2,8-10.9,8.9c-5.9,0.9-10.8,4.6-16.2,7c-3,1.3-5.6,3.4-8.8,4.1c-3.7,0.8-7.3,0.3-11-0.8c1.6,3.5-0.5,5.9-2.7,8.4
			c-0.3,1.5-1.6,2.1-2.6,2.9c-1,0.9-1.9,1.8-2.8,2.9c-0.5,0.5-1.1,0.9-1.7,1.2c-2.9,1.8-6.4,2-9.5,3.1c-6.2,2.1-12.3,4.4-18.1,7.6
			c-1.4,0.8-1.9,2.3-3.2,3.1c-1,1.2-2.1,2.3-3,3.5c-0.7,0.9-1.7,1.1-2.5,0.5c-0.7-0.6-0.2-1.5,0.5-2.1c2-1.7,1.3-2.8-0.8-3.4
			c-3.4-1-6.7-2.2-9.9-4c-4.5-2.5-7.8-6.1-9.2-11.3c3.6,3.4,7.7,5.7,12.6,6.5c-1.4-1.8-0.3-2.9,1.1-3.7c4.3-2.5,8.5-4.9,12.8-7.3
			c9.2-5.1,18.4-10.3,27.6-15.4C117.1,188,117.5,188,117.5,188.8z"/>
		<path id="XMLID_357_" class="st3" d="M118,210.4c0.5-0.2,0.9-0.5,1.4-0.7c1.8-2,3.8-3.7,6.1-5.1c9.3-4.1,18.7-8.2,28.9-10.7
			c-4.8,4.2-8.7,8.9-13.4,12.6c-2.8,2.2-5.1,4.7-6.8,7.8c-1.4,2.6-4.3,4-6,6.4c-0.4,0.6-1.1,1.1-1.1,1.8c0,2.3-1.4,3.7-3.1,5
			c-3.3,2.4-5.4,5.8-7.8,8.9c-2.6,3.2-5.9,5.5-9.1,8c-0.7,0.6-1.2,0.5-1.8-0.1c-5.6-6.3-11.6-12.1-17.5-18c-0.3-0.3-0.3-0.7-0.5-1
			c1.2-2.1,3.3-3.2,5.3-4.3c4.1-2.2,8.5-3.7,12.9-5.1c3.2-1,6.4-2,9.4-3.4C116,211.9,117.2,211.6,118,210.4z"/>
		<path id="XMLID_356_" class="st3" d="M257.6,136.6c1-1.3,2-2.6,2.9-3.9c3.3-0.7,6-2.8,9.1-4c1.1-1.6,2.9-2.5,4.1-3.9
			c0.2-0.2,0.5-0.4,0.9-0.5c2,0.4,3.1,2.1,4.4,3.3c4.1,3.6,7.8,7.6,11.7,11.5c0.3,0.3,0.4,0.6,0.6,1c0.1,0.1,0.2,0.1,0.2,0.2
			c0.9,0.9,1.9,1.8,2.7,2.9l-0.1-0.1c2.5,3.5,2.5,3.5-1.6,5.1c-0.5,0.2-0.9,0.4-1.2,0.7h0.1c-2.3,1.2-4.8,1.9-6.8,3.6
			c-4,1.9-7.3,4.8-10.4,7.9c-1.2,1.6-2.6,3.1-3.8,4.7c-1,1.3-1.4,0.5-1.6-0.5c-0.2-1.3,0-2.5-0.2-3.8c-0.4-3.7-2.5-6.9-3.2-10.5
			c-0.9-4.7-5-7.2-7-11.1C257.8,138.5,257,137.7,257.6,136.6z"/>
		<path id="XMLID_355_" class="st4" d="M156.9,166.3c-1.4,0.8-2.9,1.6-4.3,2.4c-0.1-0.1-0.2-0.1-0.3-0.2c0.5-0.8,1-1.5,1.6-2.3
			c0.4-0.6,1.1-1.2,0.6-1.9c-0.5-0.6-1.3-0.1-1.9,0.1c-4,1.2-7.3,3.5-10.1,6.6c-0.4,0.1-0.7,0-0.5-0.5c2.3-4.8,5.5-8.6,10.2-11.6
			c7.5-4.7,15.9-7.6,23.4-12.2c4.4-2.7,9.3-4,14.3-5.3c6.8-1.8,12.9-5.2,19.4-7.6c0.7-0.3,1.3-0.8,2.2-0.8c1.3,0,2.9-0.2,3.3,1.3
			c0.3,1.2-1.4,1.3-2.2,1.7c-7.5,3.8-14.6,8.2-21.2,13.4c-4.7,3.7-10,4.8-15.6,5.7c-4.2,0.7-8.3,2.1-12.3,3.4
			c-2.8,0.9-4.2,3.1-5.1,5.7C157.8,165,157.6,165.8,156.9,166.3z"/>
		<path id="XMLID_354_" class="st3" d="M274.4,124.6c-0.1,0.1-0.2,0.3-0.3,0.3c-1.6,0.9-2.8,2.3-4.5,3.1c-1.4,0.7-2.8,1-4.2-0.1
			c-0.4-0.3-0.8-0.4-1.3-0.2c-3.2,1.3-5.6-0.6-8-2.2c-1.7-1.1-3.5-2.2-4.8-3.9c-0.6-0.7-1.6-1.5,0.5-2.1c0.8-0.2,2.8-1,2.2-3
			c-0.2-0.7,0.4-0.8,0.9-0.7c1.8,0.2,1.9-0.9,1.3-2c-0.8-1.7-0.1-2.1,1.5-2.4c2-0.4,3.5-1.4,3.5-3.8c0-1.4,4-3.8,5.6-3.6
			c5.4,0.7,10.3,6.2,10.7,11.8c0.6,2.9-0.6,5.4-2,7.8l0,0C275.2,124,274.7,124.3,274.4,124.6z"/>
		<path id="XMLID_353_" class="st5" d="M115.1,291.1c0-4.9,0.4-9.8,1.4-14.6c1.3-6.1,5.1-10.6,10.5-12.8c12.6-5.2,24-12.4,35.3-19.9
			c3.5-2.3,7.4-4.1,11.3-5.5c8-3,14.6-8.4,21.7-12.8c2.9-1.8,6-2.9,9.5-2.8c-8.8,3-15.5,9.7-23.5,14c-4,2.1-8.2,3.7-12.3,5.6
			c-6.9,3.2-12.8,7.9-19.2,11.9c-5.7,3.6-11.7,6.6-18,9.2c-5.5,2.3-10.7,5-13.2,10.9c-1.4,3.4-1.8,6.9-2,10.5
			c-0.1,2.2-0.3,4.3-1,6.3C115.4,291.3,115.2,291.3,115.1,291.1z"/>
		<path id="XMLID_352_" class="st5" d="M217.4,227.4c0.3-3.3,0.3-6.7,1.1-9.9c1.2-4.6,4.8-7.4,8.5-9.9c2.9-2,6.1-3.2,9.3-4.5
			c6.1-2.6,11.8-5.9,17.2-9.8c4.7-3.5,9.8-6.5,15.3-8.7c9.5-3.9,18.3-9.1,26.7-15c2.6-1.8,5.3-3.4,8.6-3.9c0.5-0.1,0.9-0.2,1.4,0.4
			c-8.5,3.4-15,9.9-23,14c-4.9,2.4-9.8,4.8-14.8,7c-4.3,1.8-8.3,4.3-12.1,7.1c-7.2,5.6-15.4,9.4-23.7,12.9c-2.7,1.1-5.1,2.6-7.3,4.4
			c-3.3,2.7-4.6,6.3-5.2,10.4c-0.3,1.9-0.8,3.8-1.2,5.7C217.8,227.5,217.6,227.5,217.4,227.4z"/>
		<path id="XMLID_351_" class="st6" d="M118,210.4c-0.8,2-2.8,2.6-4.6,3.3c-5.3,2.3-11.1,3.6-16.4,5.8c-3.5,1.5-6.7,3.5-9.7,5.7
			c0-0.1,0-0.3,0-0.4c0.5-3.9,4.1-4.6,6.7-5.8c6.2-2.9,12.6-5.6,19.4-6.9C115,211.9,116.4,211,118,210.4z"/>
		<path id="XMLID_350_" class="st7" d="M294.6,168.2c-8.4,6-17.5,10.7-27,14.7c-6.3,2.7-11.8,6.8-17.4,10.6c-0.7,0.4-1.3,0.8-2,1.2
			c-0.2-0.1-0.3-0.3-0.3-0.6c2.5-2.9,5.9-4.5,9-6.5c6-3.9,12.5-7.1,19-9.9c5.1-2.2,9.9-5.2,14.5-8.3c1.1-0.7,2.1-1.7,3.5-1.9
			C294.4,167.5,294.7,167.7,294.6,168.2z"/>
		<path id="XMLID_349_" class="st8" d="M213.7,220.5c-1-1.3-2.4-2.1-3.8-3.1c1.7-1.7,3.6-3,5.7-3.9c0.5-0.2,1.2-0.3,1.6-0.1
			c0.5,0.3,0.1,1-0.1,1.5c-1,2.8-0.7,5.8-1.4,8.9c-1-1.7-0.4-3.8-1.8-5.4C213.4,219.1,214.4,219.8,213.7,220.5z"/>
		<path id="XMLID_348_" class="st9" d="M151.5,248.7c-6.2,4.3-13,7.6-19.9,10.5c-4.4,1.9-8.4,4.3-12.2,8.3c0.3-2,1.8-2.4,2.3-3.4
			c2.3-2.6,5.3-4,8.3-5.5c6.4-3.1,13-5.7,18.9-9.7c0.6-0.4,1.2-0.8,2-0.9C151.3,248.1,151.6,248.3,151.5,248.7z"/>
		<path id="XMLID_347_" class="st10" d="M113.4,282.9c-0.1-3.6-0.9-7.2-0.5-10.8c0.1-0.9,0-1.8,1.3-1.8c0.5,0,1.1-0.5,1.6,0
			s0.1,1-0.1,1.5C114.4,275.4,114.1,279.2,113.4,282.9z"/>
		<path id="XMLID_346_" class="st11" d="M313.8,162c-1.1-0.8-3-1.2-0.8-3c0.9-0.7,1.3-0.5,1.9,0.2c1.8,2,2.8,4.4,3.3,7
			c0.1,0.8,0.9,1.7-0.4,2.3c0-0.1-0.1-0.3-0.1-0.4C316.3,166.2,315.5,163.8,313.8,162z"/>
		<path id="XMLID_345_" class="st12" d="M115.1,291.1c0.1,0,0.3,0,0.4,0c-0.2,5,0.6,9.9-0.3,14.9c-0.3,1.4,0.8,2.9-0.2,4.3
			c-0.3,0.4-0.5,0.3-0.8,0.1C114.5,303.9,114.8,297.5,115.1,291.1z"/>
		<path id="XMLID_344_" class="st13" d="M215.5,257.9c-1.9-4.5-3.8-9-3.3-14c0.5,1.4,0.2,3,0.7,4.4c0.4,1.4,0.6,2.9,1.2,4.2
			c0.1-2-0.8-4-0.7-5.9C215.4,250,215.3,254,215.5,257.9z"/>
		<path id="XMLID_343_" class="st14" d="M184.6,230.5c-6.5,4-13.7,6.6-20.6,9.7c0-1.6,1.4-1.6,2.4-2c5.9-2.7,12.1-4.9,17.7-8.2
			C184.6,229.8,184.7,230.1,184.6,230.5z"/>
		<path id="XMLID_342_" class="st15" d="M156.9,166.3c0.4-0.7,0.5-1.6,1.5-1.9c4.3-1.4,8.6-2.7,13-4.1c0.3-0.1,0.6-0.2,0.9-0.3
			c1.2,0.6,0.1,0.9-0.2,1.1c-1.3,0.6-2.8,0.9-4.1,1.7c-1.3-0.3-2.2,0.9-3.5,0.7C161.9,164.3,159.2,165,156.9,166.3z"/>
		<path id="XMLID_341_" class="st7" d="M248.2,194.7c-4,2.9-8.6,4.5-13,6.6c-1.1,0.5-2.3,1-3.4,1.5c-0.2,0.2-0.4,0.2-0.6,0
			c0.6-1.9,2.6-2,4-2.7c3.7-1.9,7.7-3.2,11.2-5.4c0.5-0.3,1-0.4,1.6-0.1C248,194.5,248.1,194.6,248.2,194.7z"/>
		<path id="XMLID_340_" class="st16" d="M314.9,198.6c-1,0.2-1.7,1.2-2.4,0.2c-2.1-2.8-3.8-5.8-3.4-9.6
			C310.2,192.7,311,196.3,314.9,198.6z"/>
		<path id="XMLID_339_" class="st17" d="M166.4,238.2c-0.6,0.9-2.1,0.8-2.4,2l0,0c-2.6,1.7-5.3,3.1-7.8,5c-0.3,0-0.4-0.1-0.6-0.3
			c-0.1-0.4,0-0.7,0.2-1c3.3-2.4,6.9-4.3,10.6-6.1C166.4,237.9,166.4,238.1,166.4,238.2z"/>
		<path id="XMLID_338_" class="st18" d="M124.6,183.9c3.2-1.9,6.3-3.7,9.5-5.6c0.4-0.2,1.1-0.7,1.4,0c0.5,1-0.6,1-1,1.2
			c-3.2,1.6-6.5,3.1-9.8,4.6C124.7,184.1,124.7,184,124.6,183.9z"/>
		<path id="XMLID_337_" class="st19" d="M313.8,162c2.4,1.3,3.5,3.5,3.8,6.2c-0.6,0.3-1,0.3-1.3-0.4c-0.3-0.6-0.6-1.3-1-1.9
			C314.4,164.8,312.9,163.9,313.8,162z"/>
		<path id="XMLID_336_" class="st20" d="M184.6,230.5c-0.2-0.1-0.3-0.3-0.5-0.4c3.1-2.2,6.2-4.3,9.3-6.5c0.2,0.2,0.3,0.5,0.5,0.7
			C190.8,226.3,187.7,228.4,184.6,230.5z"/>
		<path id="XMLID_335_" class="st21" d="M294.6,168.2c0-0.4-0.2-0.5-0.5-0.5c-0.3-0.5,0-0.9,0-1.4c1.2-0.9,2.5-1.8,3.9-2.3
			c-0.1,1,0.5,0.5,0.9,0.4c0.2,0.2,0.5,0.2,0.5,0.6C297.8,166,296.2,167.1,294.6,168.2z"/>
		<path id="XMLID_334_" class="st22" d="M209.2,214.7c1.4-1,2.7-2.2,4.3-2.9c0,0.2,0,0.3,0,0.5c0.2,0.2,0.5,0.2,0.5,0.6
			c-2,1.1-3.6,2.7-5.3,4.2C208,216,209.7,215.6,209.2,214.7z"/>
		<path id="XMLID_333_" class="st23" d="M231,202.6c0.3,0,0.5,0.1,0.8,0.1c-3.3,2-6.7,3.9-9.5,6.6c-0.5,0.5-1.1,1.2-1.6,0v0.1
			c2.2-2.1,4.5-4,7.1-5.6C228.8,203.3,229.6,202.3,231,202.6z"/>
		<path id="XMLID_332_" class="st24" d="M130,258.9c-2.7,1.8-5.5,3.5-8.2,5.3h-0.2h-0.2c2.1-3,5.4-4.4,8.5-6
			C130.1,258.4,130.1,258.6,130,258.9z"/>
		<path id="XMLID_331_" class="st25" d="M114.2,310.3c0.3,0,0.5,0,0.8-0.1c-1.7,1.1-1.3,3-1.6,4.6c-1.6-2.9,0.2-5.9-0.2-9.3
			C114.2,307.3,113,309,114.2,310.3z"/>
		<path id="XMLID_330_" class="st26" d="M117.5,188.8c-0.2-0.5-0.6-0.4-1-0.5c2.6-1.6,5.2-3.2,8.1-4.4c0.1,0.1,0.1,0.1,0.2,0.2
			C122.4,185.7,119.9,187.3,117.5,188.8z"/>
		<path id="XMLID_329_" class="st27" d="M150.3,170.1c-2,1.3-4,2.7-6.2,4.2C144.8,172.2,145.9,171.3,150.3,170.1z"/>
		<path id="XMLID_328_" class="st14" d="M156.2,244.9c2.5-1.8,4.9-3.8,7.9-4.8c-2.1,2-4.8,3.2-7.2,4.9
			C156.6,245.2,156.4,245.2,156.2,244.9z"/>
		<path id="XMLID_327_" class="st28" d="M210.5,225.1c-1.3-1-2.4-2.3-4.4-2.2C208.7,221.3,209.9,222,210.5,225.1z"/>
		<path id="XMLID_326_" class="st29" d="M156.2,244.9c0.2,0,0.5,0.1,0.7,0.1c-1.6,1.5-3.6,2.5-5.4,3.7c-0.2-0.2-0.3-0.3-0.5-0.5
			c0.9-2.2,2.7-3,4.8-3.4C156,244.9,156.1,244.9,156.2,244.9z"/>
		<path id="XMLID_325_" class="st30" d="M167.9,162.7c1.1-1.6,3-1.4,4.5-2.3c0,0,0.1-0.1,0.1-0.2c-0.1-0.1-0.2-0.2-0.2-0.3
			c1.1-1.2,1.5-0.4,2,0.6C172.2,161.5,170,162.1,167.9,162.7z"/>
		<path id="XMLID_324_" class="st31" d="M125.5,204.6c-1.8,2-3.9,3.6-6.1,5.1c1.3-2.5,3.7-3.8,5.7-5.6
			C125.3,204.3,125.4,204.4,125.5,204.6z"/>
		<path id="XMLID_323_" class="st32" d="M214,212.9c-0.2-0.2-0.4-0.4-0.5-0.6c2.3-0.6,4.2-2.8,6.9-1.7
			C218.2,211.1,216,211.8,214,212.9z"/>
		<path id="XMLID_322_" class="st33" d="M275.4,123.5c0.9-2.5,2.1-5,2-7.8c0.5,0.5,0.3,1.1,0.4,1.6
			C278,119.8,277.2,121.9,275.4,123.5z"/>
		<path id="XMLID_321_" class="st34" d="M269.6,128.1c1-1.7,2.5-2.8,4.5-3.1c-1,1.8-2.7,2.8-4.5,3.8
			C269.6,128.5,269.6,128.3,269.6,128.1z"/>
		<path id="XMLID_320_" class="st35" d="M236,121.6c-1.8,1.5-3.4,3.4-6.6,3.4C232,123.7,233.7,122.1,236,121.6L236,121.6z"/>
		<path id="XMLID_319_" class="st36" d="M200.4,219.6c0.1-0.1,0.3-0.2,0.4-0.4c2-0.6,4-1.2,6-1.8c0.1,0.2,0.1,0.4,0.2,0.6
			C204.7,218.2,203,220.3,200.4,219.6z"/>
		<path id="XMLID_318_" class="st37" d="M198.7,215.7c-0.6,0.7-1,1.8-2.2,2.1c-0.2,0-0.7-0.1-0.6-0.5c0.3-1.1,1.3-1.7,2.2-2.2
			C198.4,214.9,198.7,215.1,198.7,215.7z"/>
		<path id="XMLID_317_" class="st38" d="M193.1,210.1c-0.1,1-0.9,1.4-1.6,1.6c-0.5,0.2-0.6-0.3-0.6-0.7c0-0.9,0.3-1.6,1.3-1.7
			C192.7,209.3,192.9,209.8,193.1,210.1z"/>
		<path id="XMLID_316_" class="st39" d="M140.9,167.1c0.4-1.2,1.4-2.1,3-2.4C142.8,165.6,141.8,166.4,140.9,167.1z"/>
		<path id="XMLID_315_" class="st40" d="M318.2,200.8c-1.3-1.6-2.2-2.7-2.9-3.6C316.3,197.8,317.9,198.1,318.2,200.8z"/>
		<path id="XMLID_314_" class="st41" d="M193.3,215.3c0.3-1.1,0.5-2,1.7-2.1c0.1,0,0.4,0.3,0.4,0.4
			C195.3,214.7,194.6,215.2,193.3,215.3z"/>
		<path id="XMLID_313_" class="st42" d="M299.5,164.9c-0.2-0.2-0.4-0.4-0.5-0.6c1.4-0.8,2.8-1.8,4.6-1.6
			C302.2,163.4,300.8,164.2,299.5,164.9z"/>
		<path id="XMLID_312_" class="st43" d="M312.8,157c0.2-0.2,0.7-0.1,0.7,0c-0.9,1.1-1.9,2-2.9,3c-0.1,0.1-0.3-0.1-0.5-0.2
			c0.2-0.3,0.3-0.5,0.5-0.8C311.1,158.1,311.6,157.2,312.8,157z"/>
		<path id="XMLID_311_" class="st44" d="M317.7,168.6c0.8-0.7,0.1-1.6,0.4-2.3c0.6,1.3,0.8,2.6,0.4,4.1
			C317.5,169.5,317.5,169.5,317.7,168.6z"/>
		<path id="XMLID_310_" class="st35" d="M236.1,121.7c1-1.4,2.6-1.7,4-2.2C238.9,120.5,237.6,121.3,236.1,121.7L236.1,121.7z"/>
		<path id="XMLID_309_" class="st45" d="M312.1,162.8c-1.1,0-2.3,0-3.7,0C309.9,160.8,311,163.2,312.1,162.8z"/>
		<path id="XMLID_308_" class="st19" d="M312.8,157c-0.7,0.7-1.5,1.4-2.2,2c-0.4,0-0.8,0-1.2-0.1c1.2-0.9,2.3-1.8,3.5-2.8
			C312.8,156.5,312.8,156.8,312.8,157z"/>
		<path id="XMLID_307_" class="st46" d="M141.9,170.6c0.2,0.2,0.3,0.3,0.5,0.5c0.1,0.8-0.3,1.3-0.8,1.8c0,0-0.5-0.2-0.5-0.3
			C141,171.7,141.4,171.1,141.9,170.6z"/>
		<path id="XMLID_306_" class="st47" d="M312.6,167.7c-1.4-0.5-1.9-1.4-3-1.6C311.2,165.8,311.2,165.8,312.6,167.7z"/>
		<path id="XMLID_305_" class="st48" d="M115.8,267.9c1.1-0.7,2-1.1,3-0.6c0.1,0,0.1,0.3,0.1,0.4C118,268.4,117.1,268.1,115.8,267.9
			z"/>
		<path id="XMLID_304_" class="st49" d="M213.1,222.1c-1.2-1-2-1.7-3-2.5C211.8,219.5,212.5,220.5,213.1,222.1z"/>
		<path id="XMLID_303_" class="st50" d="M257.6,136.6c1.3,2.3,2.2,4.7,4.5,6.5c1.7,1.4,2.9,3.3,3.2,6c0.1,1.2,0.9,3,1.6,4.4
			c1.7,3.3,2.6,6.8,2.2,10.5c0,0.1-0.6,2.4,1,0.8c0.2-0.2,0.5-0.2,0.7,0c-0.2,1-2.1,1.5-0.7,3c0.5,0.5-0.4,1-0.9,0.8
			c-1.4-0.4-2.9-0.3-4.1-1.5c-2.1-2.2-4.4-4.1-6.6-6.2c-0.2-0.1-0.4-0.2-0.4-0.5c1.1-2.4,2.4-4.7,2.8-7.4c0.6-3.7-1.6-6.5-3.3-9.4
			c-1.1-1.9-2.1-3.7-1.2-6C256.8,137.2,257.2,136.9,257.6,136.6z"/>
		<path id="XMLID_302_" class="st51" d="M231,202.6c-3.5,1.2-6,3.7-8.8,5.9c-0.5,0.4-0.8,1-1.6,1c1.3-2.9,4-4.2,6.5-5.7
			c7.8-4.5,15.8-8.7,23.6-13.3c14.3-8.4,29.1-15.9,43.4-24.3c0.9,0.5,0.3,0.9,0,1.4c-9.2,7-19.9,11.2-30.2,16.3
			c-5.7,2.8-10.9,6.7-16,10.5C242.5,197.6,236.4,199.5,231,202.6z"/>
		<path id="XMLID_301_" class="st52" d="M210.6,186c-2,2.5-5,3.9-7.4,5.9c-3.9,3.3-7.4,7.1-12.3,9c-11.3,4.5-21,12-31.8,17.4
			c-1.3,0.7-2.4,1.7-3.7,2.6c-0.5,0.2-0.5,0-0.4-0.4c8-5.5,15.4-11.8,24.5-15.7c4.9-2.1,9.1-5.9,13.9-8.1c5.1-2.4,9.6-5.3,13.2-9.5
			c1.2-1.4,2.8-2,4.5-2.5C211.5,185.3,211,185.6,210.6,186z"/>
		<path id="XMLID_300_" class="st53" d="M155.9,244.9c-1.6,1.1-3.2,2.3-4.8,3.4c-6.3,4.2-13.2,7.5-20.1,10.5
			c-0.3,0.1-0.6,0.1-0.9,0.1c0-0.2-0.1-0.4-0.1-0.6c8.7-4.8,17.3-9.6,26-14.5C155.8,244.1,155.8,244.5,155.9,244.9z"/>
		<path id="XMLID_299_" class="st54" d="M272.3,166.2c3.3-6,15.5-14.8,21.3-15.5C285.5,154.5,278.2,159.3,272.3,166.2z"/>
		<path id="XMLID_298_" class="st55" d="M142.2,233.5c-5.8,5.5-12.9,9-19.9,12.6c-0.1-0.1-0.2-0.3-0.1-0.4c0-0.1,0.1-0.2,0.1-0.2
			c3.5-2.1,7-4.3,10.6-6.1c3.1-1.6,5.6-4.1,8.5-6C141.7,233.3,142,233.3,142.2,233.5z"/>
		<path id="XMLID_297_" class="st34" d="M274.4,124.6c0.1-0.6,0.5-0.9,1-1.1c4.7,4.7,9.5,9.4,14.2,14.2c0.7,0.7,1.8,1.2,1.6,2.4
			c-5-4.8-9.5-10-14.9-14.4C275.8,125.2,275.4,124.4,274.4,124.6z"/>
		<path id="XMLID_296_" class="st56" d="M291.2,149c0.4-1.3,1.8-1.1,2.7-1.5c1.7-0.7,1.9-1.5,0.9-2.9c-0.3-0.4-0.8-0.8-0.6-1.4
			c1.4,0.9,2.2,2.1,2.5,3.7c0.1,0.6,0,0.4-0.8,0.5c-1.1,0.2-2.2,0.8-3.3,1.3C292.1,148.9,291.7,149.3,291.2,149z"/>
		<path id="XMLID_295_" class="st57" d="M225.1,195.2c-2.8,2.5-5.9,4.4-9.1,6.2c-0.1-0.1-0.1-0.1-0.2-0.2c2.8-2.4,5.9-4.4,9.1-6.3
			C224.9,195,225,195.1,225.1,195.2z"/>
		<path id="XMLID_294_" class="st58" d="M155,220.6c0.1,0.1,0.3,0.3,0.4,0.4c-2,1.9-4,3.9-6,5.8C151,224.4,152.6,222.2,155,220.6z"
			/>
		<path id="XMLID_293_" class="st59" d="M216,201.4c-2.1,1.9-4.2,3.8-6.3,5.7l0,0c1.2-2.8,3.7-4.3,6.1-5.9
			C215.8,201.2,215.9,201.3,216,201.4z"/>
		<path id="XMLID_292_" class="st60" d="M284.5,152.6c1.7-2.2,4.2-2.9,6.8-3.6C289.4,151,286.7,151.3,284.5,152.6z"/>
		<path id="XMLID_291_" class="st61" d="M210.6,186c0.1-0.4,0.3-0.9,0.4-1.3c1.5-1.2,2.8-2.6,4.7-3.4C214.1,183,212.8,185,210.6,186
			z"/>
		<path id="XMLID_290_" class="st62" d="M258.3,160.5c0.1,0.2,0.2,0.3,0.4,0.5c-1.1,1.4-1.7,3.2-3.1,4.3c-0.2,0.2-0.4,0.2-0.7,0
			C255.9,163.6,256.8,161.9,258.3,160.5z"/>
		<path id="XMLID_289_" class="st63" d="M244.3,177.7c-1.4,1.5-2.7,3-4.1,4.5C240.8,180.1,242.3,178.7,244.3,177.7z"/>
		<path id="XMLID_288_" class="st58" d="M142.2,233.5c-0.2,0-0.5,0-0.7-0.1c1.5-1.3,3-2.7,4.5-4c0.1,0.2,0.3,0.3,0.4,0.5
			C145,231.2,144.1,232.8,142.2,233.5z"/>
		<path id="XMLID_287_" class="st44" d="M236.8,186.5c-1.1,1.5-2.4,2.8-4.3,3.3c1.2-1.3,2.8-2.3,3.9-3.7
			C236.6,186.2,236.7,186.3,236.8,186.5z"/>
		<path id="XMLID_286_" class="st64" d="M270.9,164.8c-0.2,0-0.5,0-0.7,0c1.2-1.6,2.2-3.3,3.9-4.4
			C273.6,162.4,272.1,163.4,270.9,164.8z"/>
		<path id="XMLID_285_" class="st65" d="M224.9,194.9c1.5-1.2,3.1-2.3,4.6-3.5c0.2,0.2,0.3,0.4,0.5,0.6c-1.6,1-3.3,2.1-4.9,3.1
			C225,195.1,224.9,195,224.9,194.9z"/>
		<path id="XMLID_284_" class="st66" d="M122.3,245.5c0,0.2,0,0.4,0,0.6c-1,1.1-2.3,1.5-3.6,2.1
			C119.6,246.9,120.8,246.1,122.3,245.5z"/>
		<path id="XMLID_283_" class="st67" d="M236.4,186.2c0.5-1.2,1.2-2.2,2.6-2.8c-0.7,1-1.5,2.1-2.2,3.1
			C236.7,186.4,236.5,186.3,236.4,186.2z"/>
		<path id="XMLID_282_" class="st68" d="M209.6,207.1c-0.3,1.2-0.8,2.3-1.8,3.2C208.1,209.1,208.2,207.7,209.6,207.1L209.6,207.1z"
			/>
		<path id="XMLID_281_" class="st56" d="M294.1,143.3c-1.3-0.6-2-1.8-2.7-2.9C292.9,140.8,293.7,141.9,294.1,143.3z"/>
		<path id="XMLID_280_" class="st69" d="M254.8,165.3c0.2,0,0.5,0,0.7,0c-0.7,1-1.4,2.1-2.9,3.3
			C253.1,166.8,254.1,166.2,254.8,165.3z"/>
		<path id="XMLID_279_" class="st70" d="M83.1,215.5c-1.6,0.2-3.2,0.5-4.9-0.1C79.9,215.1,81.5,215,83.1,215.5L83.1,215.5z"/>
		<path id="XMLID_278_" class="st71" d="M266,115.3c-1-0.6-1.5-1.5-2.7-1.2c-0.9,0.2-2.2-2.1-1.7-2.9c0.3-0.7,0.8-0.6,1.3-0.2
			C264.4,111.9,265.7,113,266,115.3z"/>
	</g>
</g>
</svg>
